<?xml version="1.0" standalone="no"?>
<!DOCTYPE svg PUBLIC "-//W3C//DTD SVG 20010904//EN"
 "http://www.w3.org/TR/2001/REC-SVG-20010904/DTD/svg10.dtd">
<svg version="1.0" xmlns="http://www.w3.org/2000/svg"
 width="3464.000000pt" height="3464.000000pt" viewBox="0 0 3464.000000 3464.000000"
 preserveAspectRatio="xMidYMid meet">
<metadata>
Created by potrace 1.16, written by Peter Selinger 2001-2019
</metadata>
<g transform="translate(0.000000,3464.000000) scale(0.100000,-0.100000)"
fill="#000000" stroke="none">
<path d="M34360 18460 l0 -16180 140 0 140 0 0 16180 0 16180 -140 0 -140 0 0
-16180z"/>
<path d="M2117 32863 c-4 -3 -7 -2370 -7 -5258 0 -4190 3 -5255 13 -5262 6 -6
54 -13 105 -15 82 -5 94 -3 102 13 7 11 10 1858 10 5153 0 2970 4 5137 9 5140
5 3 5396 6 11980 6 6584 0 11978 3 11986 6 29 11 15 134 -16 134 -5 0 -14 -11
-19 -25 -5 -14 -14 -25 -19 -25 -6 0 -22 -12 -36 -27 -22 -25 -33 -28 -84 -28
-50 0 -64 4 -86 25 -35 33 -55 72 -55 109 0 16 -7 37 -16 45 -17 18 -69 22
-79 6 -3 -5 -6 -48 -7 -95 l-1 -86 -101 3 -101 3 -3 70 c-4 115 -4 115 -66
115 -71 0 -81 -13 -78 -99 1 -36 -1 -72 -6 -78 -5 -9 -36 -12 -102 -10 l-95 2
-5 90 -5 90 -50 0 -50 0 -5 -90 -5 -90 -100 0 -100 0 -3 70 c-4 114 -5 117
-60 113 l-47 -3 -3 -92 -3 -93 -72 0 c-40 0 -77 4 -83 8 -5 4 -20 24 -33 45
-24 40 -56 49 -65 19 -13 -39 -59 -70 -117 -76 -52 -7 -57 -5 -87 24 -17 16
-35 30 -40 30 -9 0 -32 58 -32 81 0 9 -11 26 -25 39 -24 22 -26 23 -44 6 -16
-15 -18 -27 -14 -71 3 -29 3 -64 -1 -78 -6 -25 -7 -25 -103 -24 l-98 2 -3 70
c-4 112 -5 115 -57 115 -24 0 -47 -5 -51 -12 -4 -6 -8 -48 -8 -92 l-1 -81 -77
-3 -76 -3 -23 40 c-23 41 -60 64 -67 42 -2 -7 -19 -27 -37 -45 -26 -27 -44
-35 -87 -40 -52 -7 -55 -6 -97 32 -39 35 -81 106 -81 137 0 7 -7 16 -16 19 -9
3 -1554 6 -3433 6 -3405 0 -3418 0 -3436 -20 -22 -24 -90 -27 -119 -5 -25 19
-55 19 -80 0 -28 -21 -89 -19 -133 5 -38 20 -57 20 -4210 20 -4162 0 -4173 0
-4185 -20 -16 -25 -98 -29 -118 -5 -16 19 -59 19 -84 0 -28 -21 -99 -19 -138
5 -33 20 -52 20 -2694 20 -1463 0 -2664 -3 -2667 -7z"/>
<path d="M26545 32860 c-3 -5 -7 -52 -9 -104 -2 -79 0 -97 13 -103 9 -4 889
-10 1956 -13 l1940 -5 5 -5147 c3 -2830 7 -5149 10 -5152 3 -2 30 -6 60 -7 98
-4 89 33 92 -406 3 -342 5 -387 19 -396 9 -6 24 -7 33 -4 15 6 16 433 14 5674
l-3 5668 -2062 3 c-1306 1 -2064 -1 -2068 -8z"/>
<path d="M6645 32101 c-60 -3 -116 -10 -122 -14 -9 -6 -13 -37 -13 -95 0 -104
26 -452 39 -537 32 -196 48 -276 82 -420 191 -798 612 -1424 1264 -1876 181
-126 424 -256 660 -354 50 -20 99 -41 110 -46 26 -11 273 -92 345 -112 153
-43 356 -87 525 -113 317 -49 247 -47 2035 -54 1785 -7 1756 -6 2075 -55 150
-22 410 -79 485 -105 14 -4 52 -16 85 -26 50 -15 179 -60 260 -92 82 -32 397
-199 475 -251 297 -199 531 -437 733 -746 62 -96 162 -281 202 -375 10 -25 27
-65 38 -90 28 -64 101 -288 131 -400 23 -90 67 -312 81 -410 12 -87 16 -100
34 -100 9 0 25 16 35 35 12 22 29 37 45 41 14 3 34 9 43 15 23 12 115 12 123
0 3 -5 19 -12 35 -16 21 -5 37 -19 55 -49 24 -42 24 -43 24 -301 0 -143 0
-268 0 -277 0 -30 -76 -24 -105 7 -13 14 -32 25 -42 25 -11 0 -27 -11 -36 -25
-22 -33 -84 -35 -126 -3 -25 18 -31 19 -46 7 -14 -12 -134 -15 -693 -20 -372
-4 -696 -11 -721 -16 -168 -36 -335 -114 -461 -217 -198 -160 -340 -421 -370
-681 -7 -60 -9 -992 -7 -2820 l4 -2730 22 -75 c12 -41 26 -89 31 -107 16 -61
92 -198 157 -286 119 -159 315 -295 514 -356 131 -40 223 -43 241 -8 7 12 37
45 67 74 55 51 55 52 31 62 -13 5 -64 14 -114 21 -121 14 -183 33 -292 86
-204 100 -357 275 -429 491 -54 165 -54 127 -53 2898 1 2666 2 2729 43 2865
44 142 116 260 223 367 100 99 206 162 348 207 l100 31 1580 0 1580 0 100 -31
c231 -73 404 -218 508 -426 53 -105 74 -170 89 -272 7 -48 12 -904 14 -2671 4
-2871 5 -2816 -54 -2980 -95 -260 -290 -449 -549 -531 -42 -13 -81 -24 -88
-24 -30 0 -44 -35 -41 -101 2 -36 6 -71 10 -77 12 -19 65 -14 169 18 279 84
506 277 634 539 20 41 39 88 44 105 4 17 18 63 31 101 l22 70 4 2735 c2 1834
0 2765 -7 2825 -30 259 -160 501 -361 673 -44 37 -96 76 -117 87 -21 11 -59
32 -85 47 -64 36 -225 85 -326 97 -47 6 -342 11 -688 11 -333 1 -616 5 -628
10 -22 8 -23 12 -29 222 -10 370 -71 774 -157 1053 -5 17 -19 62 -31 100 -24
81 -64 193 -89 250 -10 22 -30 69 -45 104 -239 571 -657 1053 -1203 1390 -102
62 -399 208 -492 241 -36 13 -69 27 -75 31 -9 7 -181 62 -300 96 -227 65 -551
124 -791 143 -71 6 -138 13 -149 17 -11 4 -783 10 -1715 13 -1777 7 -1726 6
-1995 50 -235 38 -640 145 -760 200 -11 5 -60 25 -110 45 -204 83 -490 245
-657 371 -321 243 -575 549 -752 908 -108 218 -148 322 -212 554 -69 253 -110
544 -121 852 -3 91 -10 171 -15 178 -11 13 -100 14 -313 3z"/>
<path d="M16323 25808 c-13 -6 -23 -20 -23 -32 0 -39 -16 -51 -70 -51 -65 0
-75 -15 -66 -101 10 -100 11 -100 74 -44 31 28 63 50 71 50 9 1 34 18 55 40
33 33 39 45 40 83 1 25 -1 48 -4 50 -12 12 -57 15 -77 5z"/>
<path d="M16332 25538 c-18 -23 -32 -46 -33 -52 0 -6 -2 -28 -4 -48 -5 -42 5
-53 57 -62 24 -4 39 -3 44 6 11 17 16 105 9 156 -8 55 -30 55 -73 0z"/>
<path d="M13595 24325 c-118 -16 -181 -36 -290 -91 -297 -148 -484 -459 -485
-806 0 -180 78 -395 196 -541 134 -166 360 -297 554 -321 177 -23 214 -25 227
-15 11 9 13 172 13 884 0 481 -3 880 -6 889 -7 19 -75 20 -209 1z m13 -207 c9
-9 12 -173 12 -674 0 -589 -2 -664 -16 -678 -8 -9 -16 -16 -17 -16 -2 0 -38
12 -82 26 -114 37 -209 96 -292 181 -80 83 -127 160 -168 278 -25 72 -28 94
-28 210 0 109 4 141 22 195 44 125 79 186 166 288 27 32 130 109 180 135 51
26 164 66 191 66 11 1 25 -4 32 -11z"/>
<path d="M18986 24324 c-3 -9 -6 -408 -6 -889 0 -708 2 -875 13 -883 7 -6 29
-9 48 -7 19 2 79 9 134 15 236 26 471 157 612 342 49 64 120 195 133 246 5 20
16 62 25 92 9 30 19 96 22 145 16 249 -77 501 -251 678 -150 154 -319 236
-547 266 -122 16 -176 14 -183 -5z m315 -219 c220 -73 372 -231 452 -469 16
-49 20 -87 20 -191 0 -122 -2 -136 -33 -225 -74 -212 -239 -374 -455 -444 -44
-14 -80 -26 -82 -26 -1 0 -9 7 -17 16 -14 14 -16 88 -16 670 0 433 4 662 10
675 14 25 30 24 121 -6z"/>
<path d="M2175 22150 c-33 -13 -42 -31 -50 -95 -12 -111 -11 -137 7 -149 14
-9 21 -6 33 12 9 12 22 22 29 22 8 0 25 15 40 34 21 28 26 46 26 90 0 47 -4
57 -26 75 -29 23 -30 23 -59 11z"/>
<path d="M2803 22058 c-6 -7 -10 -49 -9 -93 l1 -80 115 0 c98 1 123 4 166 24
83 37 138 109 111 146 -10 12 -25 15 -67 13 -46 -2 -57 -7 -65 -25 -7 -16 -19
-23 -40 -24 -16 0 -56 -1 -88 -2 -64 -2 -67 -1 -83 27 -13 25 -28 30 -41 14z"/>
<path d="M3411 22056 c-15 -18 -9 -139 8 -160 17 -20 65 -21 85 0 20 19 22
144 4 162 -16 16 -83 15 -97 -2z"/>
<path d="M3730 22051 c-15 -29 -10 -139 7 -157 19 -19 68 -18 87 2 19 18 22
124 6 155 -15 27 -85 27 -100 0z"/>
<path d="M4051 22056 c-16 -19 -11 -145 7 -162 19 -19 97 -18 116 2 11 11 16
34 16 75 0 87 -9 99 -74 99 -33 0 -58 -5 -65 -14z"/>
<path d="M4402 22058 c-18 -18 -16 -143 4 -162 19 -20 38 -20 57 -1 18 17 22
142 6 162 -14 16 -51 17 -67 1z"/>
<path d="M4691 22056 c-17 -20 -9 -155 10 -167 8 -5 32 -9 54 -9 61 0 68 9 72
90 4 90 -3 100 -72 100 -33 0 -57 -5 -64 -14z"/>
<path d="M5041 22057 c-16 -20 -12 -145 6 -162 13 -13 444 -15 3471 -13 3058
3 3460 5 3487 18 27 14 30 21 33 68 3 47 1 53 -22 64 -39 17 -72 -2 -83 -49
-8 -37 -10 -38 -57 -41 -27 -2 -54 2 -60 8 -6 6 -11 34 -11 63 l0 52 -3376 3
c-2815 2 -3378 0 -3388 -11z"/>
<path d="M12167 22063 c-3 -5 -4 -42 -3 -83 1 -69 3 -76 26 -87 19 -10 181
-13 715 -13 524 0 694 -3 703 -12 18 -18 17 -521 -2 -537 -9 -8 -1147 -12
-4286 -13 -3786 -3 -4274 -5 -4280 -18 -4 -8 -14 -43 -22 -78 -14 -61 -14 -63
6 -77 18 -13 589 -15 4391 -15 3386 0 4374 3 4383 12 9 9 12 122 12 448 0 239
-3 445 -6 458 l-6 22 -814 0 c-447 0 -815 -3 -817 -7z"/>
<path d="M18986 22048 c-3 -13 -6 -219 -6 -458 0 -326 3 -439 12 -448 17 -17
11169 -17 11186 0 7 7 12 41 12 83 0 79 -18 118 -52 113 -21 -3 -21 -1 -20
346 0 209 -3 357 -9 368 -7 14 -22 18 -62 18 -29 0 -58 -5 -65 -12 -18 -18
-15 -143 4 -180 14 -27 16 -65 12 -285 -3 -144 -9 -258 -15 -264 -15 -15
-10782 -12 -10800 2 -18 16 -19 519 -1 537 9 9 190 12 753 12 838 0 829 -1
837 66 5 41 -15 94 -36 94 -36 0 -64 -20 -71 -49 -9 -42 -27 -53 -82 -49 l-48
3 0 60 0 60 -771 3 -772 2 -6 -22z"/>
<path d="M20896 22062 c-3 -6 -1 -103 3 -153 3 -28 114 -29 3591 -27 l3535 3
48 22 c26 12 47 27 47 32 0 5 8 12 18 15 9 3 27 21 40 40 19 28 22 38 12 56
-10 18 -19 21 -68 18 -47 -2 -59 -7 -67 -25 -11 -25 -33 -29 -131 -25 -64 3
-73 6 -83 28 l-11 24 -3464 0 c-1906 0 -3467 -4 -3470 -8z"/>
<path d="M28406 22054 c-11 -28 -6 -150 6 -162 14 -14 67 -16 86 -3 15 9 21
148 8 169 -11 19 -93 15 -100 -4z"/>
<path d="M28727 22063 c-4 -3 -7 -41 -7 -83 0 -102 2 -104 133 -98 119 6 172
26 229 83 71 72 60 108 -31 103 -47 -3 -58 -7 -66 -25 -10 -24 -14 -25 -100
-25 -94 -1 -101 1 -113 27 -11 24 -31 32 -45 18z"/>
<path d="M29336 22054 c-10 -26 -7 -134 4 -155 11 -20 63 -26 88 -11 15 10 23
139 10 165 -12 23 -93 24 -102 1z"/>
<path d="M29662 22058 c-7 -7 -12 -41 -12 -85 0 -61 3 -74 19 -83 29 -15 67
-12 81 6 17 19 23 129 10 155 -12 22 -78 27 -98 7z"/>
<path d="M2193 21766 c-29 -31 -53 -68 -57 -87 -9 -44 -7 -131 2 -147 15 -23
75 -26 100 -5 20 16 23 29 27 125 3 75 1 116 -9 138 l-13 31 -50 -55z"/>
<path d="M2215 21394 c-14 -15 -25 -30 -25 -34 0 -4 -14 -13 -30 -20 -17 -7
-35 -21 -40 -31 -7 -11 -10 -3090 -10 -8503 0 -8375 0 -8485 19 -8496 14 -7
4480 -10 14274 -10 11975 0 14256 2 14266 14 8 10 10 2193 9 8352 l-3 8339
-95 5 c-85 5 -97 4 -112 -13 -17 -18 -18 -424 -18 -8237 0 -7484 -1 -8218 -16
-8224 -9 -3 -2557 -6 -5662 -5 -3691 0 -5637 4 -5617 10 17 6 80 26 140 46
598 193 1041 659 1170 1233 38 165 48 292 42 495 -9 283 -64 504 -184 738
-227 444 -618 718 -1170 822 -214 40 -359 47 -1115 52 l-738 5 -2 -1698 -3
-1699 -735 -2 -735 -3 130 65 c152 75 232 133 337 244 114 118 179 232 220
383 33 120 33 348 0 462 -89 307 -324 539 -689 681 l-73 28 78 32 c171 70 256
126 377 249 100 101 161 206 191 326 24 96 15 280 -19 378 -80 232 -265 393
-567 495 -333 113 -783 129 -1217 42 -141 -29 -233 -60 -358 -123 -107 -53
-149 -84 -187 -136 -37 -51 -36 -89 1 -127 53 -53 143 -35 231 46 32 29 76 65
97 79 130 86 488 156 716 140 l97 -7 -2 -651 -3 -651 -85 -3 c-47 -2 -162 2
-257 8 -211 14 -256 9 -300 -36 -25 -24 -33 -41 -33 -67 0 -84 69 -108 270
-96 165 10 322 11 373 3 l37 -7 0 -845 0 -844 -212 5 c-227 5 -289 15 -448 73
-215 77 -398 213 -478 355 -49 85 -91 121 -151 127 -48 4 -51 3 -70 -29 -12
-19 -21 -50 -21 -70 0 -61 55 -156 139 -239 91 -91 186 -155 341 -232 l115
-58 -6017 0 c-3309 0 -6023 3 -6032 6 -15 6 -16 754 -16 8389 l0 8383 -25 30
c-14 17 -25 34 -25 40 0 5 -11 17 -25 26 -24 16 -26 16 -50 -10z m16616
-13664 c512 -40 867 -191 1111 -473 261 -303 382 -690 356 -1142 -39 -691
-501 -1231 -1198 -1398 -152 -37 -447 -64 -525 -49 l-25 4 0 1534 0 1534 73 0
c40 0 134 -5 208 -10z"/>
<path d="M30461 21331 c-18 -33 -13 -99 9 -121 17 -17 32 -20 100 -19 94 1
110 14 110 89 0 64 -10 76 -49 61 -30 -13 -111 -11 -143 3 -11 5 -20 1 -27
-13z"/>
<path d="M2629 21324 c-18 -21 -25 -145 -10 -173 l12 -21 930 0 c584 0 937 4
949 10 10 5 20 20 24 33 5 23 9 24 118 25 93 1 117 4 138 20 28 21 40 80 19
93 -7 4 -447 8 -978 8 -882 0 -1066 3 -1157 17 -21 3 -36 -1 -45 -12z"/>
<path d="M15401 18106 c-14 -17 -12 -152 3 -165 6 -5 22 -11 36 -13 l25 -3 5
-545 c5 -524 6 -547 27 -601 78 -206 241 -381 553 -594 63 -43 121 -85 128
-93 28 -36 2 -380 -41 -528 -33 -117 -94 -210 -163 -250 -52 -30 -75 -32 -744
-54 -837 -27 -1011 -50 -1175 -155 -203 -130 -309 -383 -261 -619 51 -246 198
-402 471 -499 137 -48 262 -74 475 -99 164 -19 1435 -18 1980 2 228 8 539 15
690 15 255 0 282 -2 375 -24 169 -40 293 -109 342 -189 29 -48 29 -69 -4 -128
-45 -84 -57 -93 -122 -90 -53 2 -62 7 -159 79 -127 94 -211 142 -316 178 -135
47 -283 36 -415 -31 -209 -105 -360 -324 -361 -518 0 -86 34 -132 98 -132 41
0 50 15 68 111 25 130 78 216 150 239 45 15 92 -6 219 -101 189 -141 309 -214
407 -248 30 -10 76 -35 101 -54 61 -46 105 -54 267 -46 101 5 148 11 188 27
64 25 148 88 182 138 14 20 45 57 69 82 87 91 127 228 117 402 -11 217 -93
382 -252 510 -152 122 -300 185 -544 230 -161 30 -344 34 -835 16 -247 -8
-583 -18 -745 -21 -162 -3 -434 -8 -605 -11 -946 -18 -1394 70 -1395 273 0 75
53 132 143 153 67 16 648 48 1072 60 490 13 561 20 667 66 264 113 422 343
492 719 14 74 38 340 34 375 0 8 0 43 0 77 l2 62 58 38 c310 204 517 415 598
610 l28 68 4 338 c2 186 1 349 -2 362 -6 24 -10 25 -85 25 -52 0 -82 -4 -89
-13 -7 -8 -12 -131 -14 -347 l-3 -335 -31 -60 c-52 -99 -137 -198 -254 -294
-183 -152 -409 -301 -455 -301 -27 0 -109 47 -255 148 -125 86 -188 137 -288
234 -85 84 -123 133 -170 222 l-27 51 -3 337 c-3 247 -7 340 -16 347 -6 5 -41
11 -76 13 l-65 3 0 270 c0 149 -4 276 -8 283 -11 16 -82 15 -96 -2z"/>
<path d="M15722 18112 c-8 -6 -12 -33 -11 -85 1 -65 4 -79 20 -87 20 -11 89
11 89 28 0 13 71 87 103 107 21 14 25 20 16 31 -13 16 -194 20 -217 6z"/>
<path d="M16331 18106 c-7 -9 -11 -42 -9 -87 3 -70 4 -74 31 -83 17 -6 37 -6
55 0 26 9 27 12 28 84 1 41 -3 81 -8 88 -14 16 -83 15 -97 -2z"/>
<path d="M16652 18108 c-7 -7 -12 -41 -12 -85 0 -78 10 -93 64 -93 42 0 56 24
56 99 0 77 -9 91 -60 91 -20 0 -41 -5 -48 -12z"/>
<path d="M16971 18106 c-16 -20 -12 -144 6 -162 17 -16 85 -19 114 -4 16 9 19
22 19 83 0 44 -5 78 -12 85 -17 17 -113 15 -127 -2z"/>
<path d="M17322 18108 c-7 -7 -12 -44 -12 -94 0 -97 10 -113 57 -84 30 18 31
21 32 91 0 40 -4 78 -10 85 -14 17 -51 18 -67 2z"/>
<path d="M17613 18108 c-6 -7 -11 -46 -11 -85 -2 -82 7 -93 73 -93 63 0 71 10
73 91 1 42 -2 77 -9 85 -15 18 -113 19 -126 2z"/>
<path d="M16190 11103 c0 -1368 -3 -1686 -14 -1766 -17 -119 -9 -159 37 -187
55 -34 131 -18 159 33 9 17 11 240 9 976 -2 795 -1 952 11 945 7 -4 526 -411
1153 -903 627 -492 1220 -957 1318 -1034 98 -77 180 -138 182 -135 2 2 5 799
5 1770 1 1308 -1 1772 -10 1788 -15 28 -68 60 -100 60 -14 0 -39 -9 -57 -20
-46 -28 -57 -77 -42 -188 7 -58 13 -372 16 -931 4 -701 2 -842 -9 -835 -7 4
-566 447 -1243 983 -676 536 -1269 1005 -1316 1043 -47 37 -89 68 -93 68 -3 0
-6 -750 -6 -1667z"/>
<path d="M20405 11289 c-493 -1198 -612 -1478 -625 -1473 -8 3 -56 9 -106 11
-109 7 -149 -8 -162 -60 -19 -75 20 -119 126 -144 65 -15 71 -19 66 -38 -11
-35 -86 -178 -116 -223 -16 -23 -38 -63 -49 -88 -20 -44 -20 -46 -2 -82 22
-45 56 -64 106 -58 78 9 95 36 213 325 l59 143 95 -6 c52 -3 345 -6 651 -6
l555 0 100 -215 99 -215 639 0 c507 0 637 3 633 13 -26 61 -1660 3584 -1665
3589 -4 4 -282 -659 -617 -1473z m419 -851 c164 -353 300 -647 303 -655 9 -24
-1101 -12 -1126 13 -5 5 512 1284 520 1284 3 0 140 -289 303 -642z"/>
<path d="M24047 12763 c-2 -4 -226 -674 -497 -1488 -271 -814 -510 -1523 -532
-1575 -22 -52 -74 -166 -115 -252 -64 -134 -76 -166 -77 -214 -1 -51 2 -58 32
-85 63 -57 145 -27 194 71 14 30 45 118 68 195 23 77 66 201 95 275 29 74 124
359 211 633 87 273 161 497 164 497 4 0 226 -391 494 -870 269 -478 491 -870
495 -870 3 0 215 437 471 970 256 533 468 966 471 962 6 -6 505 -1539 577
-1769 l25 -83 660 0 c624 0 659 1 652 18 -6 16 -219 628 -969 2791 -152 437
-278 796 -280 799 -3 2 -118 -222 -256 -499 -210 -419 -789 -1568 -795 -1577
-1 -1 -58 107 -128 240 -69 134 -311 601 -537 1038 -226 437 -413 796 -415
798 -2 2 -5 0 -8 -5z"/>
<path d="M11180 12654 c-14 -2 -56 -9 -95 -15 -288 -44 -546 -180 -698 -369
-122 -152 -178 -315 -180 -525 -1 -231 48 -392 183 -593 136 -204 292 -348
815 -757 401 -314 576 -478 634 -596 44 -89 46 -183 7 -264 -87 -176 -353
-265 -703 -236 -302 26 -575 126 -760 278 -120 100 -175 115 -232 67 -27 -23
-31 -32 -31 -77 0 -66 22 -102 97 -159 435 -334 1257 -393 1777 -129 428 218
633 596 575 1061 -15 127 -35 194 -89 307 -58 120 -155 252 -308 418 -130 142
-275 275 -587 536 -293 245 -422 364 -485 447 -103 137 -107 260 -9 354 67 66
126 82 289 81 264 -2 522 -79 677 -202 116 -91 163 -103 214 -52 59 59 27 151
-77 220 -111 74 -279 142 -439 178 -95 21 -140 25 -330 28 -121 2 -231 2 -245
-1z"/>
<path d="M14188 12622 l-998 -2 0 -1730 0 -1730 1075 0 c746 0 1090 3 1126 11
70 15 113 54 113 104 0 79 -81 108 -223 81 -65 -13 -159 -16 -449 -16 -202 -1
-373 -1 -379 0 -10 0 -13 225 -13 1092 l0 1091 400 -5 c399 -6 400 -6 433 16
59 40 61 107 4 150 -28 21 -35 21 -433 17 l-404 -3 0 371 c0 347 1 371 18 371
358 5 731 -2 798 -15 176 -34 248 -4 248 102 0 72 -76 106 -227 101 -50 -2
-541 -4 -1089 -6z"/>
<path d="M28898 12622 l-998 -2 0 -1730 0 -1730 1103 2 1102 3 42 23 c48 25
63 47 63 92 0 74 -84 104 -219 76 -62 -12 -153 -15 -447 -16 -203 0 -375 -1
-381 0 -10 0 -13 225 -13 1092 l0 1091 393 -5 c437 -6 447 -5 471 54 25 60 4
104 -59 125 -19 6 -178 8 -417 5 l-388 -5 0 372 c0 290 3 371 13 371 6 0 169
0 362 0 275 0 370 -3 444 -16 126 -21 177 -15 213 25 21 23 28 42 28 72 0 77
-76 113 -229 107 -47 -2 -535 -4 -1083 -6z"/>
<path d="M4430 10890 l0 -1732 688 5 c707 4 812 10 1057 52 362 63 747 264
991 517 302 314 455 679 471 1123 13 394 -74 735 -265 1030 -228 354 -607 594
-1072 679 -245 45 -325 49 -1112 53 l-758 5 0 -1732z m1705 1515 c357 -46 620
-157 833 -351 219 -200 369 -475 434 -797 20 -97 23 -141 22 -337 0 -243 -11
-325 -69 -505 -39 -120 -146 -329 -219 -426 -138 -182 -353 -356 -569 -459
-228 -109 -438 -159 -709 -167 l-178 -6 0 1538 0 1538 173 -7 c94 -3 222 -13
282 -21z"/>
<path d="M8260 10890 l0 -1730 625 0 625 0 0 1730 0 1730 -625 0 -625 0 0
-1730z"/>
<path d="M3220 3255 l0 -545 150 0 150 0 0 251 c0 279 3 294 66 324 51 24 91
19 125 -14 l29 -29 0 -266 0 -266 151 0 150 0 -3 308 -3 307 -27 57 c-17 38
-40 67 -68 87 -99 72 -280 62 -382 -20 l-38 -30 0 191 0 190 -150 0 -150 0 0
-545z"/>
<path d="M14220 3700 l0 -100 150 0 150 0 0 100 0 100 -150 0 -150 0 0 -100z"/>
<path d="M19820 3700 l0 -100 150 0 150 0 0 100 0 100 -150 0 -150 0 0 -100z"/>
<path d="M27430 3255 l0 -545 150 0 150 0 0 545 0 545 -150 0 -150 0 0 -545z"/>
<path d="M27920 3700 l0 -100 150 0 150 0 0 100 0 100 -150 0 -150 0 0 -100z"/>
<path d="M28930 3613 l0 -186 -23 21 c-48 45 -116 67 -207 67 -165 -1 -264
-81 -306 -246 -21 -83 -15 -291 11 -365 57 -165 217 -246 392 -199 53 14 76
28 115 65 l48 46 11 -40 c5 -23 12 -47 14 -53 3 -10 37 -13 125 -13 l120 0 0
545 0 545 -150 0 -150 0 0 -187z m-62 -333 c45 -28 64 -78 64 -171 0 -90 -13
-137 -48 -170 -21 -20 -36 -24 -84 -24 -70 0 -104 25 -121 89 -18 65 -7 210
18 244 40 54 112 68 171 32z"/>
<path d="M30930 3613 l0 -186 -23 21 c-48 45 -116 67 -207 67 -165 -1 -264
-81 -306 -246 -21 -83 -15 -291 11 -365 57 -165 217 -246 392 -199 53 14 76
28 115 65 l48 46 11 -40 c5 -23 12 -47 14 -53 3 -10 37 -13 125 -13 l120 0 0
545 0 545 -150 0 -150 0 0 -187z m-62 -333 c45 -28 64 -78 64 -171 0 -90 -13
-137 -48 -170 -21 -20 -36 -24 -84 -24 -70 0 -104 25 -121 89 -18 65 -7 210
18 244 40 54 112 68 171 32z"/>
<path d="M11267 3733 c-2 -5 -17 -59 -33 -120 l-29 -113 -62 0 -63 0 0 -100 0
-100 55 0 55 0 0 -212 c0 -117 5 -230 10 -250 14 -51 56 -97 107 -120 57 -25
180 -32 273 -16 l75 13 3 88 3 87 -61 0 c-51 0 -65 4 -85 25 -25 24 -25 26
-25 205 l0 180 85 0 85 0 0 100 0 100 -85 0 -85 0 0 120 0 120 -109 0 c-61 0
-112 -3 -114 -7z"/>
<path d="M4473 3509 c-161 -27 -273 -116 -273 -219 l0 -30 144 0 c136 0 145 1
151 20 10 33 61 53 122 48 69 -6 103 -35 103 -88 l0 -37 -118 -7 c-218 -13
-328 -51 -387 -134 -27 -39 -30 -52 -33 -130 -2 -76 0 -92 20 -127 45 -76 113
-105 249 -105 99 0 191 24 252 65 l38 26 39 -35 c21 -19 56 -39 77 -45 49 -14
177 -14 226 0 l37 10 0 89 0 90 -40 0 c-29 0 -42 5 -50 19 -6 12 -10 97 -10
206 0 202 -6 234 -58 288 -81 85 -298 128 -489 96z m247 -502 c0 -45 -4 -57
-28 -80 -70 -67 -201 -60 -217 12 -3 17 -1 39 5 50 20 39 102 68 193 70 l47 1
0 -53z"/>
<path d="M5510 3509 c-65 -11 -165 -56 -200 -90 -85 -80 -120 -173 -120 -314
0 -242 119 -377 359 -408 159 -20 326 19 418 97 44 37 93 138 93 193 l0 43
-132 0 -133 0 -15 -48 c-13 -40 -22 -50 -60 -69 -82 -42 -175 -22 -215 47 -17
29 -20 53 -20 145 0 92 3 116 20 145 29 50 77 72 142 66 71 -6 110 -35 125
-92 l12 -44 138 0 138 0 0 38 c0 125 -93 232 -240 276 -67 21 -235 29 -310 15z"/>
<path d="M6511 3509 c-207 -35 -321 -177 -321 -403 0 -152 41 -251 135 -326
129 -102 432 -119 601 -32 84 43 143 128 144 205 l0 37 -138 0 -139 0 -16 -40
c-20 -53 -67 -74 -149 -68 -87 6 -131 47 -145 133 l-6 35 301 0 300 0 -4 73
c-10 141 -43 227 -115 291 -97 88 -268 125 -448 95z m199 -194 c30 -16 52 -49
64 -97 l6 -28 -149 0 -150 0 9 31 c14 48 38 79 73 94 43 19 111 19 147 0z"/>
<path d="M7677 3510 c-55 -14 -110 -45 -152 -85 -21 -19 -39 -34 -41 -32 -1 1
-7 25 -11 52 l-8 50 -123 3 -122 3 0 -396 0 -395 150 0 150 0 0 250 c0 276 4
296 60 325 42 22 85 19 117 -9 l28 -24 3 -271 3 -271 149 0 149 0 3 260 3 260
31 31 c21 20 44 32 72 36 36 5 45 2 72 -25 l30 -30 0 -266 0 -266 151 0 150 0
-3 308 c-3 299 -4 308 -27 360 -30 67 -77 107 -148 128 -107 31 -233 0 -322
-81 -23 -21 -43 -36 -44 -34 -60 88 -111 118 -214 124 -37 2 -85 0 -106 -5z"/>
<path d="M9010 3509 c-64 -11 -164 -56 -200 -90 -85 -80 -120 -173 -120 -314
0 -241 117 -375 355 -407 244 -33 444 65 503 246 16 49 22 91 22 161 0 70 -6
112 -22 161 -62 190 -275 286 -538 243z m189 -207 c66 -33 76 -59 76 -190 0
-129 -9 -160 -58 -196 -21 -16 -43 -21 -87 -21 -44 0 -66 5 -87 21 -48 36 -58
68 -58 189 0 92 3 116 20 145 24 41 76 70 125 70 19 0 50 -8 69 -18z"/>
<path d="M9967 3510 c-83 -13 -172 -56 -212 -102 -53 -62 -70 -163 -39 -236
40 -96 127 -141 334 -172 105 -16 160 -42 160 -74 0 -37 -35 -56 -105 -56 -71
0 -124 23 -143 63 l-13 27 -135 0 c-133 0 -134 0 -134 -23 0 -38 48 -123 86
-152 99 -76 260 -108 425 -86 205 27 299 111 299 266 0 83 -16 122 -70 168
-53 45 -100 61 -260 88 -123 21 -158 31 -172 53 -12 17 -10 24 12 46 41 41
179 19 195 -30 6 -19 15 -20 141 -20 l134 0 0 28 c0 77 -87 165 -193 197 -64
19 -231 27 -310 15z"/>
<path d="M13041 3509 c-80 -14 -167 -56 -206 -101 -53 -62 -70 -163 -39 -236
40 -96 127 -141 334 -172 105 -16 160 -42 160 -74 0 -37 -35 -56 -105 -56 -71
0 -124 23 -143 63 -7 15 -20 27 -28 27 -7 1 -67 1 -131 1 -113 1 -118 0 -121
-21 -5 -32 44 -124 81 -153 177 -134 553 -126 672 15 41 49 55 90 55 163 0 83
-16 122 -70 168 -52 45 -100 61 -255 87 -140 23 -172 35 -181 63 -11 33 28 57
93 57 61 0 108 -20 118 -50 6 -19 15 -20 141 -20 l134 0 0 27 c0 64 -54 134
-138 177 -76 39 -248 55 -371 35z"/>
<path d="M15160 3506 c-63 -18 -102 -40 -146 -81 -20 -19 -38 -34 -40 -32 -1
1 -7 25 -11 52 l-8 50 -123 3 -122 3 0 -396 0 -395 150 0 150 0 0 250 c0 281
4 300 65 326 49 20 80 17 112 -10 l28 -24 3 -271 3 -271 149 0 150 0 0 246 c0
276 5 300 65 328 50 24 82 20 116 -13 l29 -29 0 -266 0 -266 151 0 150 0 -3
308 c-3 299 -4 308 -27 360 -30 67 -77 107 -148 128 -107 31 -233 0 -322 -81
-23 -21 -43 -36 -44 -34 -36 53 -65 81 -101 98 -56 27 -164 35 -226 17z"/>
<path d="M17609 3505 c-48 -15 -91 -50 -120 -95 l-17 -25 -8 55 -9 55 -123 3
-122 3 0 -396 0 -395 149 0 150 0 3 223 c3 211 4 224 25 253 33 47 79 64 167
64 l76 0 0 124 c0 75 -4 127 -10 131 -23 14 -117 14 -161 0z"/>
<path d="M18191 3509 c-207 -35 -321 -177 -321 -403 0 -152 41 -251 135 -326
129 -102 432 -119 601 -32 84 43 143 128 144 205 l0 37 -138 0 -139 0 -16 -40
c-20 -53 -67 -74 -149 -68 -87 6 -131 47 -145 133 l-6 35 301 0 300 0 -4 73
c-10 141 -43 227 -115 291 -97 88 -268 125 -448 95z m199 -194 c30 -16 52 -49
64 -97 l6 -28 -149 0 -150 0 9 31 c14 48 38 79 73 94 43 19 111 19 147 0z"/>
<path d="M19165 3514 c-60 -10 -138 -36 -175 -59 -121 -77 -147 -248 -52 -348
50 -53 134 -84 292 -107 105 -16 160 -42 160 -74 0 -37 -35 -56 -105 -56 -73
0 -124 23 -145 65 l-15 30 -130 -2 c-125 -1 -130 -2 -133 -23 -5 -32 44 -124
81 -153 177 -134 553 -126 672 15 41 49 55 90 55 163 0 83 -16 122 -70 168
-53 45 -100 61 -258 87 -138 23 -169 34 -178 63 -11 33 28 57 93 57 61 0 108
-20 118 -50 6 -19 15 -20 141 -20 l134 0 0 28 c0 77 -87 165 -193 197 -52 16
-235 28 -292 19z"/>
<path d="M20601 3509 c-109 -18 -202 -74 -255 -152 -48 -71 -66 -142 -66 -254
0 -239 118 -374 355 -405 244 -33 444 65 503 246 16 49 22 91 22 161 0 70 -6
112 -22 161 -62 190 -276 286 -537 243z m188 -207 c66 -33 76 -59 76 -190 0
-129 -9 -160 -58 -196 -21 -16 -43 -21 -87 -21 -44 0 -66 5 -87 21 -45 34 -58
69 -61 179 -3 88 0 105 20 145 26 51 73 80 128 80 19 0 50 -8 69 -18z"/>
<path d="M21777 3509 c-57 -13 -128 -53 -167 -94 l-35 -36 -10 58 -11 58 -122
3 -122 3 0 -396 0 -395 150 0 150 0 0 251 c0 279 3 294 66 324 51 24 91 19
125 -14 l29 -29 0 -266 0 -266 151 0 150 0 -3 308 -3 307 -27 57 c-51 110
-178 161 -321 127z"/>
<path d="M22601 3509 c-109 -18 -202 -74 -255 -152 -47 -71 -66 -142 -66 -253
0 -150 42 -250 135 -324 129 -102 432 -119 601 -32 84 43 143 128 144 205 l0
37 -138 0 -139 0 -16 -40 c-19 -49 -61 -70 -140 -70 -87 0 -140 46 -154 135
l-6 35 301 0 300 0 -4 63 c-11 155 -41 235 -114 301 -97 88 -270 124 -449 95z
m199 -194 c30 -16 52 -49 64 -97 l6 -28 -149 0 -150 0 9 31 c14 48 38 79 73
94 43 19 111 19 147 0z"/>
<path d="M23550 3509 c-64 -11 -155 -51 -188 -82 -57 -53 -86 -168 -62 -241
34 -103 127 -154 340 -186 105 -16 160 -42 160 -74 0 -37 -35 -56 -105 -56
-71 0 -124 23 -143 63 l-13 27 -135 0 c-133 0 -134 0 -134 -23 0 -37 48 -123
83 -150 138 -105 405 -128 579 -50 101 45 148 117 148 228 0 83 -16 122 -70
168 -53 45 -100 61 -258 87 -161 27 -192 42 -175 86 20 54 190 41 208 -16 6
-19 15 -20 141 -20 l134 0 0 28 c0 77 -87 165 -193 197 -64 20 -243 27 -317
14z"/>
<path d="M25129 3505 c-48 -15 -91 -50 -120 -95 l-17 -25 -8 55 -9 55 -123 3
-122 3 0 -396 0 -395 149 0 150 0 3 223 c3 211 4 224 25 253 33 47 79 64 167
64 l76 0 0 124 c0 75 -4 127 -10 131 -23 14 -117 14 -161 0z"/>
<path d="M25711 3509 c-207 -35 -321 -177 -321 -403 0 -152 41 -251 135 -326
129 -102 432 -119 601 -32 84 43 143 128 144 205 l0 37 -138 0 -139 0 -16 -40
c-20 -53 -67 -74 -149 -68 -87 6 -131 47 -145 133 l-6 35 301 0 300 0 -4 73
c-10 141 -43 227 -115 291 -97 88 -268 125 -448 95z m199 -194 c30 -16 52 -49
64 -97 l6 -28 -149 0 -150 0 9 31 c14 48 38 79 73 94 43 19 111 19 147 0z"/>
<path d="M26673 3509 c-161 -27 -273 -116 -273 -219 l0 -30 144 0 c136 0 145
1 151 20 10 33 61 53 122 48 69 -6 103 -35 103 -88 l0 -37 -118 -7 c-218 -13
-328 -51 -387 -134 -27 -39 -30 -52 -33 -130 -2 -76 0 -92 20 -127 45 -76 113
-105 249 -105 99 0 191 24 252 65 l38 26 39 -35 c21 -19 56 -39 77 -45 49 -14
177 -14 226 0 l37 10 0 89 0 90 -40 0 c-29 0 -42 5 -50 19 -6 12 -10 97 -10
206 0 202 -6 234 -58 288 -81 85 -298 128 -489 96z m247 -502 c0 -45 -4 -57
-28 -80 -70 -67 -201 -60 -217 12 -3 17 -1 39 5 50 20 39 102 68 193 70 l47 1
0 -53z"/>
<path d="M29695 3514 c-11 -2 -45 -9 -75 -15 -134 -27 -230 -115 -230 -210 l0
-29 144 0 c136 0 145 1 151 20 10 33 61 53 122 48 69 -6 103 -35 103 -88 l0
-37 -118 -7 c-218 -13 -328 -51 -387 -134 -27 -39 -30 -52 -33 -130 -2 -76 0
-92 20 -127 45 -76 113 -105 249 -105 99 0 191 24 252 65 l38 26 39 -35 c21
-19 56 -39 77 -45 49 -14 177 -14 226 0 l37 10 0 89 0 90 -40 0 c-29 0 -42 5
-50 19 -6 12 -10 97 -10 206 0 202 -6 234 -58 288 -63 67 -200 107 -357 105
-44 0 -89 -2 -100 -4z m215 -507 c0 -45 -4 -57 -27 -79 -51 -48 -127 -62 -183
-33 -32 17 -47 63 -30 94 20 39 102 68 193 70 l47 1 0 -53z"/>
<path d="M16655 3501 c-59 -17 -86 -31 -130 -72 -48 -44 -47 -44 -62 26 l-9
40 -122 3 -122 3 0 -546 0 -545 150 0 150 0 0 180 c0 99 4 180 8 180 5 0 17
-9 27 -20 52 -58 233 -75 333 -31 65 29 123 93 154 170 20 50 23 73 23 211 0
137 -3 161 -23 211 -48 121 -142 187 -274 194 -40 2 -86 0 -103 -4z m60 -233
c40 -31 55 -77 55 -168 0 -92 -15 -137 -56 -169 -24 -19 -38 -22 -82 -19 -95
8 -127 63 -121 211 4 92 21 129 70 154 39 20 103 16 134 -9z"/>
<path d="M11800 3213 c1 -305 6 -355 46 -415 88 -135 337 -142 464 -13 19 19
38 35 42 35 4 0 10 -25 13 -55 l7 -55 124 0 124 0 0 395 0 395 -150 0 -150 0
0 -255 0 -255 -33 -36 c-44 -48 -109 -58 -151 -23 -15 14 -31 41 -36 64 -5 22
-10 145 -10 273 l0 232 -145 0 -145 0 0 -287z"/>
<path d="M14220 3105 l0 -395 150 0 150 0 0 395 0 395 -150 0 -150 0 0 -395z"/>
<path d="M19820 3105 l0 -395 150 0 150 0 0 395 0 395 -150 0 -150 0 0 -395z"/>
<path d="M27920 3105 l0 -395 150 0 150 0 0 395 0 395 -150 0 -150 0 0 -395z"/>
</g>
</svg>
